<svg width="139" height="138" viewBox="0 0 139 138" fill="none" xmlns="http://www.w3.org/2000/svg">
<g filter="url(#filter0_di_1_28)">
<path d="M115.533 43.2C115.533 60.6154 101.415 74.7333 84 74.7333C66.5846 74.7333 52.4667 60.6154 52.4667 43.2C52.4667 25.7846 66.5846 11.6667 84 11.6667C101.415 11.6667 115.533 25.7846 115.533 43.2Z" fill="url(#paint0_linear_1_28)"/>
<path d="M121.267 97.6667C121.267 107.166 104.582 114.867 84 114.867C63.4182 114.867 46.7333 107.166 46.7333 97.6667C46.7333 88.1674 63.4182 80.4667 84 80.4667C104.582 80.4667 121.267 88.1674 121.267 97.6667Z" fill="url(#paint1_linear_1_28)"/>
</g>
<mask id="mask0_1_28" style="mask-type:alpha" maskUnits="userSpaceOnUse" x="46" y="11" width="76" height="104">
<path d="M115.533 43.2C115.533 60.6154 101.415 74.7333 84 74.7333C66.5846 74.7333 52.4667 60.6154 52.4667 43.2C52.4667 25.7846 66.5846 11.6667 84 11.6667C101.415 11.6667 115.533 25.7846 115.533 43.2Z" fill="url(#paint2_linear_1_28)"/>
<path d="M121.267 97.6667C121.267 107.166 104.582 114.867 84 114.867C63.4182 114.867 46.7333 107.166 46.7333 97.6667C46.7333 88.1674 63.4182 80.4667 84 80.4667C104.582 80.4667 121.267 88.1674 121.267 97.6667Z" fill="url(#paint3_linear_1_28)"/>
</mask>
<g mask="url(#mask0_1_28)">
<g filter="url(#filter1_d_1_28)">
<path d="M86.8667 54.6667C86.8667 72.0821 72.7487 86.2 55.3333 86.2C37.9179 86.2 23.8 72.0821 23.8 54.6667C23.8 37.2513 37.9179 23.1333 55.3333 23.1333C72.7487 23.1333 86.8667 37.2513 86.8667 54.6667Z" fill="url(#paint4_linear_1_28)"/>
<path d="M92.6 109.133C92.6 118.633 75.9151 126.333 55.3333 126.333C34.7515 126.333 18.0667 118.633 18.0667 109.133C18.0667 99.634 34.7515 91.9333 55.3333 91.9333C75.9151 91.9333 92.6 99.634 92.6 109.133Z" fill="url(#paint5_linear_1_28)"/>
</g>
</g>
<g filter="url(#filter2_bii_1_28)">
<path d="M86.8667 54.6667C86.8667 72.082 72.7487 86.2 55.3333 86.2C37.9179 86.2 23.8 72.082 23.8 54.6667C23.8 37.2513 37.9179 23.1333 55.3333 23.1333C72.7487 23.1333 86.8667 37.2513 86.8667 54.6667Z" fill="url(#paint6_linear_1_28)" fill-opacity="0.1"/>
<path d="M92.6 109.133C92.6 118.633 75.9151 126.333 55.3333 126.333C34.7515 126.333 18.0667 118.633 18.0667 109.133C18.0667 99.634 34.7515 91.9333 55.3333 91.9333C75.9151 91.9333 92.6 99.634 92.6 109.133Z" fill="url(#paint7_linear_1_28)" fill-opacity="0.1"/>
</g>
<defs>
<filter id="filter0_di_1_28" x="41" y="1.34667" width="90.5867" height="119.253" filterUnits="userSpaceOnUse" color-interpolation-filters="sRGB">
<feFlood flood-opacity="0" result="BackgroundImageFix"/>
<feColorMatrix in="SourceAlpha" type="matrix" values="0 0 0 0 0 0 0 0 0 0 0 0 0 0 0 0 0 0 127 0" result="hardAlpha"/>
<feOffset dx="3.44" dy="-3.44"/>
<feGaussianBlur stdDeviation="3.44"/>
<feColorMatrix type="matrix" values="0 0 0 0 0.996078 0 0 0 0 0.317647 0 0 0 0 0.588235 0 0 0 0.2 0"/>
<feBlend mode="normal" in2="BackgroundImageFix" result="effect1_dropShadow_1_28"/>
<feBlend mode="normal" in="SourceGraphic" in2="effect1_dropShadow_1_28" result="shape"/>
<feColorMatrix in="SourceAlpha" type="matrix" values="0 0 0 0 0 0 0 0 0 0 0 0 0 0 0 0 0 0 127 0" result="hardAlpha"/>
<feOffset dx="-5.73333" dy="5.73333"/>
<feGaussianBlur stdDeviation="5.73333"/>
<feComposite in2="hardAlpha" operator="arithmetic" k2="-1" k3="1"/>
<feColorMatrix type="matrix" values="0 0 0 0 1 0 0 0 0 1 0 0 0 0 1 0 0 0 0.24 0"/>
<feBlend mode="normal" in2="shape" result="effect2_innerShadow_1_28"/>
</filter>
<filter id="filter1_d_1_28" x="14.0533" y="13.3867" width="88.2933" height="116.96" filterUnits="userSpaceOnUse" color-interpolation-filters="sRGB">
<feFlood flood-opacity="0" result="BackgroundImageFix"/>
<feColorMatrix in="SourceAlpha" type="matrix" values="0 0 0 0 0 0 0 0 0 0 0 0 0 0 0 0 0 0 127 0" result="hardAlpha"/>
<feOffset dx="2.86667" dy="-2.86667"/>
<feGaussianBlur stdDeviation="3.44"/>
<feColorMatrix type="matrix" values="0 0 0 0 0.8625 0 0 0 0 0 0 0 0 0 0.344003 0 0 0 0.5 0"/>
<feBlend mode="normal" in2="BackgroundImageFix" result="effect1_dropShadow_1_28"/>
<feBlend mode="normal" in="SourceGraphic" in2="effect1_dropShadow_1_28" result="shape"/>
</filter>
<filter id="filter2_bii_1_28" x="6.6" y="11.6667" width="97.4667" height="126.133" filterUnits="userSpaceOnUse" color-interpolation-filters="sRGB">
<feFlood flood-opacity="0" result="BackgroundImageFix"/>
<feGaussianBlur in="BackgroundImageFix" stdDeviation="5.73333"/>
<feComposite in2="SourceAlpha" operator="in" result="effect1_backgroundBlur_1_28"/>
<feBlend mode="normal" in="SourceGraphic" in2="effect1_backgroundBlur_1_28" result="shape"/>
<feColorMatrix in="SourceAlpha" type="matrix" values="0 0 0 0 0 0 0 0 0 0 0 0 0 0 0 0 0 0 127 0" result="hardAlpha"/>
<feOffset dy="5.73333"/>
<feGaussianBlur stdDeviation="2.86667"/>
<feComposite in2="hardAlpha" operator="arithmetic" k2="-1" k3="1"/>
<feColorMatrix type="matrix" values="0 0 0 0 1 0 0 0 0 1 0 0 0 0 1 0 0 0 0.15 0"/>
<feBlend mode="normal" in2="shape" result="effect2_innerShadow_1_28"/>
<feColorMatrix in="SourceAlpha" type="matrix" values="0 0 0 0 0 0 0 0 0 0 0 0 0 0 0 0 0 0 127 0" result="hardAlpha"/>
<feOffset dy="-5.73333"/>
<feGaussianBlur stdDeviation="2.86667"/>
<feComposite in2="hardAlpha" operator="arithmetic" k2="-1" k3="1"/>
<feColorMatrix type="matrix" values="0 0 0 0 0.996078 0 0 0 0 0.317647 0 0 0 0 0.588235 0 0 0 0.15 0"/>
<feBlend mode="normal" in2="effect2_innerShadow_1_28" result="effect3_innerShadow_1_28"/>
</filter>
<linearGradient id="paint0_linear_1_28" x1="46.7333" y1="63.2667" x2="121.267" y2="63.2667" gradientUnits="userSpaceOnUse">
<stop stop-color="#FB8383"/>
<stop offset="1" stop-color="#FE5196"/>
<stop offset="1" stop-color="#FE5196"/>
</linearGradient>
<linearGradient id="paint1_linear_1_28" x1="46.7333" y1="63.2667" x2="121.267" y2="63.2667" gradientUnits="userSpaceOnUse">
<stop stop-color="#FB8383"/>
<stop offset="1" stop-color="#FE5196"/>
<stop offset="1" stop-color="#FE5196"/>
</linearGradient>
<linearGradient id="paint2_linear_1_28" x1="46.7333" y1="63.2667" x2="121.267" y2="63.2667" gradientUnits="userSpaceOnUse">
<stop stop-color="#FB8383"/>
<stop offset="1" stop-color="#FE5196"/>
</linearGradient>
<linearGradient id="paint3_linear_1_28" x1="46.7333" y1="63.2667" x2="121.267" y2="63.2667" gradientUnits="userSpaceOnUse">
<stop stop-color="#FB8383"/>
<stop offset="1" stop-color="#FE5196"/>
</linearGradient>
<linearGradient id="paint4_linear_1_28" x1="18.0667" y1="74.7333" x2="92.6" y2="74.7333" gradientUnits="userSpaceOnUse">
<stop stop-color="#FB8383"/>
<stop offset="1" stop-color="#FE5196"/>
</linearGradient>
<linearGradient id="paint5_linear_1_28" x1="18.0667" y1="74.7333" x2="92.6" y2="74.7333" gradientUnits="userSpaceOnUse">
<stop stop-color="#FB8383"/>
<stop offset="1" stop-color="#FE5196"/>
</linearGradient>
<linearGradient id="paint6_linear_1_28" x1="18.0667" y1="74.7333" x2="92.6" y2="74.7333" gradientUnits="userSpaceOnUse">
<stop stop-color="#FB8383"/>
<stop offset="1" stop-color="#FE5196"/>
</linearGradient>
<linearGradient id="paint7_linear_1_28" x1="18.0667" y1="74.7333" x2="92.6" y2="74.7333" gradientUnits="userSpaceOnUse">
<stop stop-color="#FB8383"/>
<stop offset="1" stop-color="#FE5196"/>
</linearGradient>
</defs>
</svg>
